<?xml version="1.0" encoding="utf-8"?>
<!-- Generator: Adobe Illustrator 26.0.0, SVG Export Plug-In . SVG Version: 6.00 Build 0)  -->
<svg version="1.1" id="Layer_1" xmlns="http://www.w3.org/2000/svg" xmlns:xlink="http://www.w3.org/1999/xlink" x="0px" y="0px"
	 viewBox="0 0 35 35" style="enable-background:new 0 0 35 35;" xml:space="preserve">
<style type="text/css">
	.st0{fill:#5D7F98;}
	.st1{fill:#00A2E1;}
	.st2{fill:#FFFFFF;}
</style>
<g>
	<path class="st0" d="M30.44,22.82c-1.26-0.77-2.94-0.53-3.74,0.68c-0.08,0.12-0.14,0.19-0.2,0.31c0,0-0.06,0.12-0.09,0.2
		c-1.01,2.46-4.74,4.66-8.3,4.66c-5.49,0-9.96-5.02-9.96-11.17c0-6.15,4.47-11.16,9.96-11.16c3.51,0,7.05,2.06,8.28,4.4
		c0.14,0.32,0.7,1.74,2.46,1.79c1.42,0,2.57-1.1,2.57-2.46c0-0.38-0.1-0.74-0.26-1.06l0.01,0c-2.1-4.07-7.83-7.51-13.06-7.51
		C9.83,1.5,3.1,8.67,3.1,17.5c0,8.82,6.74,16,15.02,16c5.5,0,10.92-3.4,13.14-7.3C31.91,24.92,31.56,23.5,30.44,22.82"/>
	<g>
		<path class="st1" d="M29.58,14.41c0.08,0.08,0.18,0.15,0.25,0.23c0.81,0.91,1.45,1.9,1.87,2.99c0.23,0.6,0.27,1.21,0.06,1.82
			c-0.16,0.46-0.46,0.82-1.01,1c-0.33,0.11-0.68,0.12-1.03,0.09c-0.41-0.04-0.8-0.15-1.09-0.41c-0.58-0.52-0.72-1.15-0.46-1.81
			c0.14-0.35,0.36-0.68,0.58-1.01c0.53-0.8,0.88-1.63,0.82-2.56c-0.01-0.1-0.02-0.2-0.02-0.31C29.56,14.43,29.57,14.42,29.58,14.41"
			/>
		<path class="st2" d="M30.69,17.99c0.02,0.02,0.05,0.04,0.07,0.06c0.21,0.24,0.39,0.51,0.5,0.8c0.06,0.16,0.07,0.32,0.02,0.49
			c-0.04,0.12-0.12,0.22-0.27,0.27c-0.09,0.03-0.18,0.03-0.27,0.02c-0.11-0.01-0.21-0.04-0.29-0.11c-0.15-0.14-0.19-0.31-0.12-0.48
			c0.04-0.09,0.1-0.18,0.16-0.27c0.14-0.21,0.24-0.43,0.22-0.68C30.68,18.05,30.68,18.02,30.69,17.99
			C30.68,17.99,30.68,17.99,30.69,17.99"/>
	</g>
	<path class="st1" d="M18.55,23.13c-2.78,0-5.04-2.52-5.04-5.63c0-3.1,2.26-5.63,5.04-5.63c1.74,0,3.59,1.06,4.3,2.46l0.11,0.24
		c0.07,0.15,0.06,0.33-0.03,0.47c-0.09,0.14-0.25,0.23-0.41,0.23h-0.33c-0.17,0-0.33-0.09-0.42-0.24l-0.05-0.08
		c-0.46-0.9-1.76-1.8-3.17-1.8c-2.07,0-3.75,1.95-3.75,4.34c0,2.39,1.68,4.34,3.75,4.34c1.39,0,2.72-0.9,3.19-1.77
		c0-0.01,0.01-0.01,0.01-0.02l0.05-0.08c0.09-0.15,0.25-0.24,0.42-0.24h0.35c0.17,0,0.33,0.09,0.42,0.24
		c0.09,0.15,0.09,0.33,0.01,0.48l-0.12,0.23C22.18,21.91,20.47,23.13,18.55,23.13"/>
</g>
</svg>