<svg id="Layer_1" data-name="Layer 1" xmlns="http://www.w3.org/2000/svg" viewBox="0 0 300.88 184.56"><defs><style>.cls-1{fill:#5d7f98;}.cls-2{fill:#00a2e1;}.cls-3{fill:#fff;}</style></defs><path class="cls-1" d="M167.41,225a2.74,2.74,0,0,0-3.73.69,2,2,0,0,0-.2.31s-.06.12-.09.2c-1,2.46-4.74,4.66-8.31,4.66-5.49,0-10-5-10-11.17s4.47-11.16,10-11.16c3.51,0,7,2.06,8.29,4.4a2.69,2.69,0,0,0,2.46,1.79,2.51,2.51,0,0,0,2.56-2.46,2.26,2.26,0,0,0-.26-1.07h0c-2.1-4.07-7.82-7.51-13.06-7.51-8.28,0-15,7.18-15,16s6.73,16,15,16c5.51,0,10.92-3.4,13.14-7.3a2.5,2.5,0,0,0-.81-3.38" transform="translate(-10.92 -51.14)"/><path class="cls-2" d="M166.55,216.62a1.79,1.79,0,0,1,.25.23,9.88,9.88,0,0,1,1.87,3,2.59,2.59,0,0,1,.06,1.82,1.51,1.51,0,0,1-1,1,2.55,2.55,0,0,1-1,.09,2,2,0,0,1-1.09-.42,1.53,1.53,0,0,1-.46-1.81,5.38,5.38,0,0,1,.58-1,4.12,4.12,0,0,0,.82-2.56c0-.1,0-.2,0-.3l0,0" transform="translate(-10.92 -51.14)"/><path class="cls-3" d="M167.65,220.19l.07.06a2.5,2.5,0,0,1,.5.8.72.72,0,0,1,0,.48.45.45,0,0,1-.27.27.65.65,0,0,1-.28,0,.49.49,0,0,1-.29-.11.41.41,0,0,1-.12-.48,1.73,1.73,0,0,1,.15-.27,1,1,0,0,0,.22-.68v-.09h0" transform="translate(-10.92 -51.14)"/><path class="cls-2" d="M155.52,225.33c-2.78,0-5-2.53-5-5.63s2.26-5.62,5-5.62a5,5,0,0,1,4.3,2.46l.11.24a.49.49,0,0,1,0,.47.48.48,0,0,1-.41.22h-.33a.48.48,0,0,1-.42-.23l-.05-.08a3.75,3.75,0,0,0-3.17-1.8,4.38,4.38,0,0,0,0,8.68,3.9,3.9,0,0,0,3.19-1.77h0l.05-.08a.48.48,0,0,1,.42-.23h.34a.51.51,0,0,1,.43.23.53.53,0,0,1,0,.49l-.12.22a5.25,5.25,0,0,1-4.33,2.44" transform="translate(-10.92 -51.14)"/><path class="cls-1" d="M97,118.23c-4-2.41-9.24-1.66-11.75,2.15a6.23,6.23,0,0,0-.62,1s-.19.37-.29.62c-3.19,7.74-14.9,14.67-26.13,14.67-17.28,0-31.34-15.79-31.34-35.14S40.9,66.39,58.18,66.39c11,0,22.18,6.49,26.06,13.85A8.48,8.48,0,0,0,92,85.87a7.92,7.92,0,0,0,8.09-7.75,7.48,7.48,0,0,0-.83-3.35h0C92.66,62,74.64,51.14,58.18,51.14c-26.06,0-47.26,22.58-47.26,50.34s21.2,50.36,47.26,50.36c17.31,0,34.35-10.71,41.34-23,2.07-4,1-8.5-2.55-10.63" transform="translate(-10.92 -51.14)"/><path class="cls-2" d="M94.26,91.78c.26.24.55.46.79.72a31.8,31.8,0,0,1,5.88,9.4,8,8,0,0,1,.19,5.73,4.73,4.73,0,0,1-3.18,3.13,7.68,7.68,0,0,1-3.24.27,5.87,5.87,0,0,1-3.43-1.3,4.79,4.79,0,0,1-1.44-5.7,17.15,17.15,0,0,1,1.82-3.18,12.84,12.84,0,0,0,2.58-8c0-.33,0-.65-.08-1l.11-.06" transform="translate(-10.92 -51.14)"/><path class="cls-3" d="M97.74,103c.07.07.15.12.21.19a8.73,8.73,0,0,1,1.57,2.51,2.12,2.12,0,0,1,0,1.53,1.28,1.28,0,0,1-.85.83,2.08,2.08,0,0,1-.86.07,1.59,1.59,0,0,1-.92-.34,1.28,1.28,0,0,1-.38-1.52,4.21,4.21,0,0,1,.48-.85,3.43,3.43,0,0,0,.69-2.15c0-.08,0-.17,0-.25l0,0" transform="translate(-10.92 -51.14)"/><path class="cls-2" d="M59.54,119.19c-8.74,0-15.85-7.94-15.85-17.7s7.11-17.7,15.85-17.7c5.49,0,11.31,3.32,13.55,7.74l.35.75a1.55,1.55,0,0,1-1.4,2.2H71a1.54,1.54,0,0,1-1.33-.75l-.14-.24c-1.44-2.83-5.54-5.66-10-5.66C53,87.83,47.73,94,47.73,101.49s5.3,13.66,11.81,13.66a12.29,12.29,0,0,0,10.06-5.57l0,0,.14-.24a1.53,1.53,0,0,1,1.32-.75h1.09a1.54,1.54,0,0,1,1.33.75,1.55,1.55,0,0,1,0,1.52l-.38.71a16.52,16.52,0,0,1-13.63,7.66" transform="translate(-10.92 -51.14)"/><path class="cls-2" d="M142.07,119.19h-1a1.54,1.54,0,0,1-1.46-1l-.1-.29-11.89-27-12,27.31a1.54,1.54,0,0,1-1.46,1h-1a1.55,1.55,0,0,1-1.29-.69,1.57,1.57,0,0,1-.13-1.46l.29-.66L125.73,85a2.12,2.12,0,0,1,3.69,0l14.07,32a1.57,1.57,0,0,1-.13,1.46,1.55,1.55,0,0,1-1.29.69" transform="translate(-10.92 -51.14)"/><path class="cls-2" d="M191.25,119.19h-.95a1.54,1.54,0,0,1-1.55-1.54l0-22.53L178.35,118a2,2,0,0,1-3.68,0L164.28,95.12v22.53a1.54,1.54,0,0,1-1.55,1.54h-.94a1.54,1.54,0,0,1-1.55-1.54V85.81A2,2,0,0,1,164.1,85l12.41,27.31L188.89,85a2,2,0,0,1,2.25-1.12,2,2,0,0,1,1.6,2l0,31.84a1.54,1.54,0,0,1-1.54,1.54" transform="translate(-10.92 -51.14)"/><path class="cls-2" d="M229.3,118.72H216a2,2,0,0,1-2-2l0-14.52a1.3,1.3,0,0,1,0-.34l0-.45,0-15.06a2,2,0,0,1,2-2l11.35,0c5.83,0,10.58,4.32,10.58,9.63a9.25,9.25,0,0,1-3.26,6.93,9.58,9.58,0,0,1,5.16,8.27c0,5.31-4.72,9.63-10.53,9.63M218,103.51v11.21l11.29,0c3.58,0,6.49-2.51,6.49-5.59s-2.91-5.58-6.49-5.58Zm0-15.21,0,11.21,9.36,0c3.61,0,6.54-2.51,6.54-5.58S231,88.3,227.36,88.3Z" transform="translate(-10.92 -51.14)"/><path class="cls-2" d="M261.13,119.19h-.95a1.54,1.54,0,0,1-1.54-1.54V85.33a1.54,1.54,0,0,1,1.54-1.54h.95a1.54,1.54,0,0,1,1.55,1.54v32.32a1.54,1.54,0,0,1-1.55,1.54" transform="translate(-10.92 -51.14)"/><path class="cls-2" d="M310.25,119.19h-1a1.54,1.54,0,0,1-1.46-1l-.09-.29-11.89-27-12,27.31a1.54,1.54,0,0,1-1.47,1h-1a1.55,1.55,0,0,1-1.29-.69,1.52,1.52,0,0,1-.13-1.46l.28-.66L293.93,85a2.12,2.12,0,0,1,3.69,0l14.05,32a1.52,1.52,0,0,1-.13,1.46,1.54,1.54,0,0,1-1.29.69" transform="translate(-10.92 -51.14)"/></svg>